<mxfile host="app.diagrams.net" agent="Mozilla/5.0 (Windows NT 10.0; Win64; x64) AppleWebKit/537.36 (KHTML, like Gecko) Chrome/135.0.0.0 Safari/537.36" version="26.2.14">
  <diagram name="Page-1" id="WlNeoa_LyfkZodj_b_rL">
    <mxGraphModel dx="786" dy="465" grid="1" gridSize="10" guides="1" tooltips="1" connect="1" arrows="1" fold="1" page="1" pageScale="1" pageWidth="827" pageHeight="1169" math="0" shadow="0">
      <root>
        <mxCell id="0" />
        <mxCell id="1" parent="0" />
        <mxCell id="DHyPLUI4_UK5zwE4Fx0b-15" value="Infra" parent="0" />
        <mxCell id="DHyPLUI4_UK5zwE4Fx0b-16" value="" style="rounded=1;arcSize=10;dashed=0;fillColor=none;gradientColor=none;strokeWidth=2;" vertex="1" parent="DHyPLUI4_UK5zwE4Fx0b-15">
          <mxGeometry x="120" y="130" width="1380" height="1220" as="geometry" />
        </mxCell>
        <mxCell id="DHyPLUI4_UK5zwE4Fx0b-17" value="" style="dashed=0;html=1;shape=mxgraph.aws3.cloud;fillColor=#F58536;gradientColor=none;dashed=0;" vertex="1" parent="DHyPLUI4_UK5zwE4Fx0b-15">
          <mxGeometry x="140" y="150" width="52" height="36" as="geometry" />
        </mxCell>
        <mxCell id="DHyPLUI4_UK5zwE4Fx0b-19" value="" style="rounded=1;arcSize=10;dashed=1;fillColor=none;gradientColor=none;dashPattern=1 1;strokeWidth=2;" vertex="1" parent="DHyPLUI4_UK5zwE4Fx0b-15">
          <mxGeometry x="190" y="190" width="1250" height="1100" as="geometry" />
        </mxCell>
        <mxCell id="DHyPLUI4_UK5zwE4Fx0b-20" value="" style="rounded=1;arcSize=10;dashed=0;fillColor=none;gradientColor=none;strokeWidth=2;" vertex="1" parent="DHyPLUI4_UK5zwE4Fx0b-15">
          <mxGeometry x="240" y="240" width="1140" height="1000" as="geometry" />
        </mxCell>
        <mxCell id="DHyPLUI4_UK5zwE4Fx0b-21" value="" style="dashed=0;html=1;shape=mxgraph.aws3.virtual_private_cloud;fillColor=#F58536;gradientColor=none;dashed=0;" vertex="1" parent="DHyPLUI4_UK5zwE4Fx0b-15">
          <mxGeometry x="260" y="260" width="52" height="36" as="geometry" />
        </mxCell>
        <mxCell id="DHyPLUI4_UK5zwE4Fx0b-22" value="" style="rounded=1;arcSize=10;dashed=0;fillColor=none;gradientColor=none;strokeWidth=2;" vertex="1" parent="DHyPLUI4_UK5zwE4Fx0b-15">
          <mxGeometry x="380" y="520" width="540" height="520" as="geometry" />
        </mxCell>
        <mxCell id="DHyPLUI4_UK5zwE4Fx0b-23" value="EC2" style="dashed=0;html=1;shape=mxgraph.aws3.instance;fillColor=#F58536;gradientColor=none;dashed=0;" vertex="1" parent="DHyPLUI4_UK5zwE4Fx0b-15">
          <mxGeometry x="394" y="530" width="40" height="41" as="geometry" />
        </mxCell>
        <mxCell id="DHyPLUI4_UK5zwE4Fx0b-24" value="Components" parent="0" />
        <mxCell id="DHyPLUI4_UK5zwE4Fx0b-27" style="edgeStyle=orthogonalEdgeStyle;rounded=0;orthogonalLoop=1;jettySize=auto;html=1;" edge="1" parent="DHyPLUI4_UK5zwE4Fx0b-24" source="DHyPLUI4_UK5zwE4Fx0b-25" target="DHyPLUI4_UK5zwE4Fx0b-26">
          <mxGeometry relative="1" as="geometry" />
        </mxCell>
        <mxCell id="DHyPLUI4_UK5zwE4Fx0b-25" value="Actor" style="shape=umlActor;verticalLabelPosition=bottom;verticalAlign=top;html=1;outlineConnect=0;" vertex="1" parent="DHyPLUI4_UK5zwE4Fx0b-24">
          <mxGeometry x="620" y="10" width="30" height="60" as="geometry" />
        </mxCell>
        <mxCell id="DHyPLUI4_UK5zwE4Fx0b-29" style="edgeStyle=orthogonalEdgeStyle;rounded=0;orthogonalLoop=1;jettySize=auto;html=1;" edge="1" parent="DHyPLUI4_UK5zwE4Fx0b-24" source="DHyPLUI4_UK5zwE4Fx0b-26" target="DHyPLUI4_UK5zwE4Fx0b-28">
          <mxGeometry relative="1" as="geometry" />
        </mxCell>
        <mxCell id="DHyPLUI4_UK5zwE4Fx0b-26" value="Internet Gateway&lt;div&gt;&lt;br&gt;&lt;/div&gt;" style="outlineConnect=0;dashed=0;verticalLabelPosition=bottom;verticalAlign=top;align=center;html=1;shape=mxgraph.aws3.internet_gateway;fillColor=#F58534;gradientColor=none;" vertex="1" parent="DHyPLUI4_UK5zwE4Fx0b-24">
          <mxGeometry x="610" y="210" width="69" height="72" as="geometry" />
        </mxCell>
        <mxCell id="DHyPLUI4_UK5zwE4Fx0b-34" style="edgeStyle=orthogonalEdgeStyle;rounded=0;orthogonalLoop=1;jettySize=auto;html=1;" edge="1" parent="DHyPLUI4_UK5zwE4Fx0b-24" source="DHyPLUI4_UK5zwE4Fx0b-28" target="DHyPLUI4_UK5zwE4Fx0b-31">
          <mxGeometry relative="1" as="geometry" />
        </mxCell>
        <mxCell id="DHyPLUI4_UK5zwE4Fx0b-28" value="React File Upload site ( Hosted by S3 )" style="rounded=0;whiteSpace=wrap;html=1;" vertex="1" parent="DHyPLUI4_UK5zwE4Fx0b-24">
          <mxGeometry x="569.5" y="360" width="150" height="60" as="geometry" />
        </mxCell>
        <mxCell id="DHyPLUI4_UK5zwE4Fx0b-30" value="Dynamo DB&lt;div&gt;&lt;br&gt;&lt;/div&gt;" style="outlineConnect=0;dashed=0;verticalLabelPosition=bottom;verticalAlign=top;align=center;html=1;shape=mxgraph.aws3.dynamo_db;fillColor=#2E73B8;gradientColor=none;" vertex="1" parent="DHyPLUI4_UK5zwE4Fx0b-24">
          <mxGeometry x="1030" y="719.5" width="72" height="81" as="geometry" />
        </mxCell>
        <mxCell id="DHyPLUI4_UK5zwE4Fx0b-37" style="edgeStyle=orthogonalEdgeStyle;rounded=0;orthogonalLoop=1;jettySize=auto;html=1;" edge="1" parent="DHyPLUI4_UK5zwE4Fx0b-24" source="DHyPLUI4_UK5zwE4Fx0b-31" target="DHyPLUI4_UK5zwE4Fx0b-35">
          <mxGeometry relative="1" as="geometry" />
        </mxCell>
        <mxCell id="DHyPLUI4_UK5zwE4Fx0b-31" value="API Gateway&lt;div&gt;&lt;br&gt;&lt;/div&gt;" style="outlineConnect=0;dashed=0;verticalLabelPosition=bottom;verticalAlign=top;align=center;html=1;shape=mxgraph.aws3.api_gateway;fillColor=#D9A741;gradientColor=none;" vertex="1" parent="DHyPLUI4_UK5zwE4Fx0b-24">
          <mxGeometry x="606.25" y="470" width="76.5" height="93" as="geometry" />
        </mxCell>
        <mxCell id="DHyPLUI4_UK5zwE4Fx0b-40" style="edgeStyle=orthogonalEdgeStyle;rounded=0;orthogonalLoop=1;jettySize=auto;html=1;" edge="1" parent="DHyPLUI4_UK5zwE4Fx0b-24" source="DHyPLUI4_UK5zwE4Fx0b-35" target="DHyPLUI4_UK5zwE4Fx0b-39">
          <mxGeometry relative="1" as="geometry" />
        </mxCell>
        <mxCell id="DHyPLUI4_UK5zwE4Fx0b-44" value="File upload" style="edgeLabel;html=1;align=center;verticalAlign=middle;resizable=0;points=[];" vertex="1" connectable="0" parent="DHyPLUI4_UK5zwE4Fx0b-40">
          <mxGeometry x="-0.2764" y="1" relative="1" as="geometry">
            <mxPoint as="offset" />
          </mxGeometry>
        </mxCell>
        <mxCell id="DHyPLUI4_UK5zwE4Fx0b-42" style="edgeStyle=orthogonalEdgeStyle;rounded=0;orthogonalLoop=1;jettySize=auto;html=1;" edge="1" parent="DHyPLUI4_UK5zwE4Fx0b-24" source="DHyPLUI4_UK5zwE4Fx0b-35" target="DHyPLUI4_UK5zwE4Fx0b-41">
          <mxGeometry relative="1" as="geometry" />
        </mxCell>
        <mxCell id="DHyPLUI4_UK5zwE4Fx0b-43" value="User authentication" style="edgeLabel;html=1;align=center;verticalAlign=middle;resizable=0;points=[];" vertex="1" connectable="0" parent="DHyPLUI4_UK5zwE4Fx0b-42">
          <mxGeometry x="0.049" y="-2" relative="1" as="geometry">
            <mxPoint as="offset" />
          </mxGeometry>
        </mxCell>
        <mxCell id="DHyPLUI4_UK5zwE4Fx0b-35" value="Spring Boot Backend APIs" style="rounded=0;whiteSpace=wrap;html=1;" vertex="1" parent="DHyPLUI4_UK5zwE4Fx0b-24">
          <mxGeometry x="584.5" y="730" width="120" height="60" as="geometry" />
        </mxCell>
        <mxCell id="DHyPLUI4_UK5zwE4Fx0b-38" style="edgeStyle=orthogonalEdgeStyle;rounded=0;orthogonalLoop=1;jettySize=auto;html=1;entryX=0;entryY=0.5;entryDx=0;entryDy=0;entryPerimeter=0;" edge="1" parent="DHyPLUI4_UK5zwE4Fx0b-24" source="DHyPLUI4_UK5zwE4Fx0b-35" target="DHyPLUI4_UK5zwE4Fx0b-30">
          <mxGeometry relative="1" as="geometry" />
        </mxCell>
        <mxCell id="DHyPLUI4_UK5zwE4Fx0b-45" value="Query user data" style="edgeLabel;html=1;align=center;verticalAlign=middle;resizable=0;points=[];" vertex="1" connectable="0" parent="DHyPLUI4_UK5zwE4Fx0b-38">
          <mxGeometry x="-0.4398" y="1" relative="1" as="geometry">
            <mxPoint as="offset" />
          </mxGeometry>
        </mxCell>
        <mxCell id="DHyPLUI4_UK5zwE4Fx0b-39" value="S3" style="outlineConnect=0;dashed=0;verticalLabelPosition=bottom;verticalAlign=top;align=center;html=1;shape=mxgraph.aws3.s3;fillColor=#E05243;gradientColor=none;" vertex="1" parent="DHyPLUI4_UK5zwE4Fx0b-24">
          <mxGeometry x="606.25" y="1070" width="76.5" height="93" as="geometry" />
        </mxCell>
        <mxCell id="DHyPLUI4_UK5zwE4Fx0b-41" value="" style="outlineConnect=0;dashed=0;verticalLabelPosition=bottom;verticalAlign=top;align=center;html=1;shape=mxgraph.aws3.cognito;fillColor=#AD688B;gradientColor=none;" vertex="1" parent="DHyPLUI4_UK5zwE4Fx0b-24">
          <mxGeometry x="270" y="713.5" width="76.5" height="93" as="geometry" />
        </mxCell>
      </root>
    </mxGraphModel>
  </diagram>
</mxfile>
